<?xml version="1.0" encoding="utf-8"?>
<!-- Generator: Adobe Illustrator 19.0.0, SVG Export Plug-In . SVG Version: 6.00 Build 0)  -->
<svg version="1.1" id="Layer_1" xmlns="http://www.w3.org/2000/svg" xmlns:xlink="http://www.w3.org/1999/xlink" x="0px" y="0px"
	 viewBox="0 0 107.7 70.9" style="enable-background:new 0 0 107.7 70.9;" xml:space="preserve">
<style type="text/css">
	.st0{fill:#FFFFFF;}
</style>
<g id="XMLID_4_">
	<path id="XMLID_37_" class="st0" d="M10.1,3h10.7l13.3,37.2L47.7,3h10.7l9.8,53.3H57.4l-6.3-33.5L38.8,56.3H29L17,22.6L10.7,56H0
		L10.1,3z"/>
	<path id="XMLID_29_" class="st0" d="M72.9,3h11.8c6.4,0,10.9,0.6,13.7,1.6s5.1,2.9,6.7,5.1c1.6,2.6,2.6,5.4,2.6,8.6
		c0,3.8-1,7-3.2,9.3c-2.2,2.6-5.1,4.2-8.6,5.1c-2.2,0.6-6.1,1-11.8,1v22.7H72.9C72.9,56.3,72.9,3,72.9,3z M84.1,24.1h3.5
		c2.9,0,4.8-0.3,5.7-0.6c1-0.3,1.9-1,2.6-1.9c0.6-0.6,1-1.6,1-2.9c0-2.2-1-3.5-2.6-4.5c-1.3-0.6-3.5-1-7-1h-3.2V24.1z"/>
</g>
<g id="XMLID_2_">
	<polyline id="XMLID_3_" class="st0" points="0,67.7 107.7,67.7 107.7,65.2 0,65.2 	"/>
</g>
</svg>
