<?xml version="1.0" encoding="utf-8"?>
<!-- Generator: Adobe Illustrator 19.0.0, SVG Export Plug-In . SVG Version: 6.00 Build 0)  -->
<svg version="1.1" id="Layer_1" xmlns="http://www.w3.org/2000/svg" xmlns:xlink="http://www.w3.org/1999/xlink" x="0px" y="0px"
	 viewBox="0 0 230 35.3" style="enable-background:new 0 0 230 35.3;" xml:space="preserve">
<style type="text/css">
	.st0{fill:#13110C;}
	.st1{fill:#AA192C;}
</style>
<g id="XMLID_121_">
	<g id="XMLID_39_">
		<g id="XMLID_82_">
			<path id="XMLID_119_" class="st0" d="M0.7,27.5h3.8v0.5H1.3v5.8H0.7V27.5z"/>
			<path id="XMLID_116_" class="st0" d="M6.2,28.3c0.5-0.6,1.3-1,2.2-1c0.1,0,0.1,0,0.2,0c0.1,0,0.1,0,0.2,0c0,0,0.1,0,0.1,0
				c0,0,0.1,0,0.1,0c0.8,0.1,1.4,0.5,1.8,1.1c0.4,0.6,0.6,1.3,0.6,2c0,0,0,0.1,0,0.1c0,0,0,0.1,0,0.1c0,0.9-0.3,1.7-0.8,2.3
				c-0.5,0.7-1.3,1-2.3,1c-1,0-1.8-0.3-2.3-1c-0.5-0.7-0.8-1.4-0.8-2.3C5.4,29.8,5.6,29,6.2,28.3z M8.5,27.9c-0.3,0-0.6,0-0.8,0.1
				c-0.3,0.1-0.5,0.2-0.7,0.4c-0.3,0.3-0.5,0.6-0.7,1C6.1,29.8,6,30.2,6,30.6c0,0,0,0.1,0,0.1c0,0,0,0.1,0,0.1
				c0,0.7,0.2,1.4,0.6,1.9c0.4,0.6,1,0.9,1.9,0.9c0.7,0,1.2-0.2,1.6-0.6c0.4-0.4,0.7-0.9,0.7-1.5c0-0.1,0-0.1,0-0.2
				c0-0.1,0-0.1,0-0.2c0,0,0-0.1,0-0.1c0,0,0-0.1,0-0.1c0,0,0-0.1,0-0.1c0,0,0-0.1,0-0.1c0-0.6-0.2-1.2-0.5-1.7
				C10,28.3,9.5,28,8.7,27.9H8.5z"/>
			<path id="XMLID_113_" class="st0" d="M13.7,27.5h2.3c0.6,0,1.2,0.1,1.6,0.4c0.4,0.3,0.6,0.7,0.6,1.4c0,0.7-0.3,1.2-0.8,1.5
				c-0.5,0.2-1.1,0.4-1.8,0.4h-1.4v2.8h-0.6V27.5z M14.4,28.1v2.5h1.4c0.5,0,0.9-0.1,1.3-0.2c0.4-0.2,0.6-0.5,0.6-1.1
				c0-0.5-0.2-0.8-0.5-1c-0.3-0.2-0.7-0.3-1.1-0.3H14.4z"/>
			<path id="XMLID_110_" class="st0" d="M19.9,28.3c0.5-0.6,1.3-1,2.2-1c0.1,0,0.1,0,0.2,0c0.1,0,0.1,0,0.2,0c0,0,0.1,0,0.1,0
				c0,0,0.1,0,0.1,0c0.8,0.1,1.4,0.5,1.8,1.1c0.4,0.6,0.6,1.3,0.6,2c0,0,0,0.1,0,0.1c0,0,0,0.1,0,0.1c0,0.9-0.3,1.7-0.8,2.3
				c-0.5,0.7-1.3,1-2.3,1c-1,0-1.8-0.3-2.3-1c-0.5-0.7-0.8-1.4-0.8-2.3C19.1,29.8,19.3,29,19.9,28.3z M22.1,27.9
				c-0.3,0-0.6,0-0.8,0.1c-0.3,0.1-0.5,0.2-0.7,0.4c-0.3,0.3-0.5,0.6-0.7,1c-0.1,0.4-0.2,0.7-0.2,1.1c0,0,0,0.1,0,0.1
				c0,0,0,0.1,0,0.1c0,0.7,0.2,1.4,0.6,1.9c0.4,0.6,1,0.9,1.9,0.9c0.7,0,1.2-0.2,1.6-0.6c0.4-0.4,0.7-0.9,0.7-1.5c0-0.1,0-0.1,0-0.2
				c0-0.1,0-0.1,0-0.2c0,0,0-0.1,0-0.1c0,0,0-0.1,0-0.1c0,0,0-0.1,0-0.1c0,0,0-0.1,0-0.1c0-0.6-0.2-1.2-0.5-1.7
				c-0.3-0.5-0.9-0.8-1.6-0.9H22.1z"/>
			<path id="XMLID_107_" class="st0" d="M27.4,33c0-0.1,0.1-0.3,0.1-0.4c0-0.1,0-0.2,0.1-0.4c0-0.1,0-0.2,0-0.3c0-0.3,0.1-0.6,0.1-1
				c0-0.4,0-0.8,0-1.2c0-0.2,0-0.3,0-0.5c0-0.2,0-0.3,0-0.5v-1.3h4.5v5.8h0.5v2h-0.6v-1.4h-4.7v1.4h-0.6v-2h0.4
				C27.3,33.3,27.3,33.1,27.4,33z M28.2,32.3c0,0.1,0,0.2-0.1,0.4c0,0.1-0.1,0.2-0.1,0.4c0,0.1-0.1,0.2-0.1,0.3h3.7v-5.3h-3.3v1.3
				c0,0.1,0,0.3,0,0.4s0,0.3,0,0.4c0,0.3,0,0.6,0,0.8c0,0.3,0,0.6-0.1,0.9C28.2,32.1,28.2,32.2,28.2,32.3z"/>
			<path id="XMLID_105_" class="st0" d="M40.1,31.8c0,0.6-0.3,1.1-0.7,1.5c-0.4,0.4-1,0.6-1.6,0.7l-0.3,0c-0.9,0-1.6-0.3-2.1-0.8
				c-0.5-0.6-0.8-1.3-0.8-2.1c0,0,0-0.1,0-0.1c0,0,0-0.1,0-0.1c0,0,0-0.1,0-0.1c0,0,0-0.1,0-0.1c0-0.1,0-0.2,0-0.3
				c0-0.1,0-0.2,0-0.3c0-0.4,0.2-0.8,0.3-1.2c0.2-0.4,0.4-0.7,0.7-0.9c0.2-0.2,0.5-0.3,0.8-0.4c0.3-0.1,0.6-0.2,0.9-0.2
				c0,0,0.1,0,0.1,0c0,0,0.1,0,0.1,0c0,0,0,0,0,0c0,0,0,0,0,0c0.6,0,1.2,0.2,1.7,0.5c0.5,0.3,0.8,0.8,0.8,1.5h-0.6
				c0-0.5-0.3-0.8-0.6-1.1c-0.4-0.2-0.8-0.4-1.2-0.4c0,0,0,0,0,0c0,0,0,0,0,0c0,0-0.1,0-0.1,0c0,0-0.1,0-0.1,0
				c-0.3,0-0.5,0.1-0.8,0.2c-0.2,0.1-0.5,0.2-0.6,0.4c-0.2,0.2-0.4,0.4-0.5,0.7c-0.1,0.3-0.2,0.6-0.2,0.9c0,0.1,0,0.2,0,0.3
				c0,0.1,0,0.2,0,0.3c0,0,0,0,0,0c0,0,0,0,0,0c0,0,0,0,0,0c0,0,0,0,0,0c0,0.7,0.2,1.3,0.6,1.9c0.4,0.6,1,0.8,1.7,0.8c0,0,0,0,0.1,0
				c0,0,0,0,0.1,0c0,0,0,0,0.1,0c0,0,0,0,0.1,0c0.5,0,1-0.2,1.3-0.5c0.3-0.3,0.5-0.7,0.5-1.2H40.1z"/>
			<path id="XMLID_103_" class="st0" d="M41.9,27.5h0.6v3.3l3.5-3.3h0.8L44,30.2l3.1,3.7h-0.8l-2.7-3.3l-1.1,1.1v2.2h-0.6V27.5z"/>
			<path id="XMLID_100_" class="st0" d="M50.8,27.5h0.8l2.5,6.3h-0.7l-0.8-2h-3l-0.8,2h-0.6L50.8,27.5z M51.2,28.2l-1.3,3.3h2.6
				L51.2,28.2z"/>
			<path id="XMLID_97_" class="st0" d="M59.8,33.9V31h-1.9c-0.3,0-0.6,0-0.9,0.1c-0.2,0.1-0.4,0.3-0.4,0.7c0,0.1,0,0.2,0,0.3
				c0,0.1,0,0.3,0,0.4c0,0,0,0.1,0,0.1c0,0,0,0.1,0,0.1c0,0.2,0,0.4-0.1,0.6c0,0.2-0.1,0.4-0.1,0.5h-0.7v-0.1
				c0.1-0.1,0.1-0.1,0.1-0.2c0-0.1,0-0.1,0.1-0.2c0,0,0-0.1,0-0.1c0,0,0-0.1,0-0.1l0.1-1c0,0,0,0,0-0.1s0,0,0-0.1
				c0-0.3,0.1-0.6,0.2-0.8c0.1-0.2,0.3-0.4,0.7-0.5c-0.3-0.1-0.6-0.3-0.8-0.6c-0.2-0.3-0.3-0.6-0.3-0.8c0,0,0,0,0-0.1c0,0,0,0,0-0.1
				c0,0,0-0.1,0-0.1c0,0,0-0.1,0-0.1c0-0.2,0.1-0.5,0.3-0.7c0.1-0.2,0.3-0.4,0.6-0.5c0.1-0.1,0.3-0.1,0.4-0.2c0.2,0,0.3-0.1,0.5-0.1
				c0.1,0,0.2,0,0.3,0c0.1,0,0.2,0,0.3,0h2.6v6.3H59.8z M59.8,30.5v-2.5h-1.9c-0.1,0-0.1,0-0.2,0c-0.1,0-0.1,0-0.2,0
				c-0.2,0-0.4,0-0.5,0.1c-0.2,0.1-0.3,0.1-0.5,0.3c-0.1,0.1-0.1,0.2-0.2,0.3c0,0.1-0.1,0.2-0.1,0.3c0,0,0,0.1,0,0.1
				c0,0,0,0.1,0,0.1c0,0,0,0,0,0c0,0,0,0,0,0c0,0,0,0,0,0s0,0,0,0c0,0.5,0.2,0.8,0.5,0.9c0.3,0.1,0.7,0.2,1.1,0.2c0,0,0,0,0.1,0
				c0,0,0,0,0.1,0H59.8z"/>
			<path id="XMLID_95_" class="st0" d="M70.6,31.8c0,0.6-0.3,1.1-0.7,1.5c-0.4,0.4-1,0.6-1.6,0.7l-0.3,0c-0.9,0-1.6-0.3-2.1-0.8
				c-0.5-0.6-0.8-1.3-0.8-2.1c0,0,0-0.1,0-0.1c0,0,0-0.1,0-0.1c0,0,0-0.1,0-0.1c0,0,0-0.1,0-0.1c0-0.1,0-0.2,0-0.3
				c0-0.1,0-0.2,0-0.3c0-0.4,0.2-0.8,0.3-1.2c0.2-0.4,0.4-0.7,0.7-0.9c0.2-0.2,0.5-0.3,0.8-0.4c0.3-0.1,0.6-0.2,0.9-0.2
				c0,0,0.1,0,0.1,0c0,0,0.1,0,0.1,0c0,0,0,0,0,0c0,0,0,0,0,0c0.6,0,1.2,0.2,1.7,0.5c0.5,0.3,0.8,0.8,0.8,1.5h-0.6
				c0-0.5-0.3-0.8-0.6-1.1c-0.4-0.2-0.8-0.4-1.2-0.4c0,0,0,0,0,0c0,0,0,0,0,0c0,0-0.1,0-0.1,0c0,0-0.1,0-0.1,0
				c-0.3,0-0.5,0.1-0.8,0.2c-0.2,0.1-0.5,0.2-0.6,0.4c-0.2,0.2-0.4,0.4-0.5,0.7c-0.1,0.3-0.2,0.6-0.2,0.9c0,0.1,0,0.2,0,0.3
				c0,0.1,0,0.2,0,0.3c0,0,0,0,0,0c0,0,0,0,0,0c0,0,0,0,0,0c0,0,0,0,0,0c0,0.7,0.2,1.3,0.6,1.9c0.4,0.6,1,0.8,1.7,0.8c0,0,0,0,0.1,0
				c0,0,0,0,0.1,0c0,0,0,0,0.1,0c0,0,0,0,0.1,0c0.5,0,1-0.2,1.3-0.5c0.3-0.3,0.5-0.7,0.5-1.2H70.6z"/>
			<path id="XMLID_93_" class="st0" d="M71.8,33.9v-0.5c0.3,0,0.5-0.1,0.6-0.4c0.1-0.2,0.2-0.6,0.3-1.1c0-0.3,0.1-0.6,0.1-1
				c0-0.4,0-0.8,0-1.2c0-0.1,0-0.3,0-0.4c0-0.1,0-0.3,0-0.4v-1.4h4.5v6.3h-0.6v-5.8h-3.3v1.4c0,0.3,0,0.7,0,1c0,0.3,0,0.7-0.1,1
				c0,0.1,0,0.2,0,0.3c0,0.1,0,0.2,0,0.3c-0.1,0.7-0.2,1.2-0.5,1.5C72.5,33.8,72.2,33.9,71.8,33.9L71.8,33.9z"/>
			<path id="XMLID_91_" class="st0" d="M81.1,32.4l-2-4.9h0.7l1.7,4l1.9-4h0.7l-2.6,5.5c-0.1,0.2-0.3,0.4-0.5,0.6
				c-0.2,0.2-0.5,0.3-0.9,0.3c0,0,0,0-0.1,0c0,0,0,0-0.1,0c0,0,0,0-0.1,0c0,0,0,0-0.1,0v-0.6c0,0,0,0,0,0c0,0,0,0,0,0c0,0,0,0,0,0
				c0,0,0,0,0,0c0.2,0,0.4-0.1,0.6-0.2c0.2-0.1,0.3-0.2,0.3-0.4c0,0,0-0.1,0-0.1c0,0,0,0,0-0.1L81.1,32.4z"/>
			<path id="XMLID_89_" class="st0" d="M88.9,30.2l2.4-2.6h0.8l-2.5,2.6l2.7,3.7h-0.7l-2.4-3.3l-0.3,0.3v3h-0.6v-3L88,30.6l-2.4,3.3
				h-0.7l2.8-3.7l-2.5-2.6h0.8l2.4,2.6v-2.6h0.6V30.2z"/>
			<path id="XMLID_86_" class="st0" d="M94.9,30.4h1.4c0.1,0,0.2,0,0.3,0c0.1,0,0.2,0,0.3,0c0.4,0,0.8,0.1,1.2,0.2
				c0.4,0.1,0.7,0.4,0.9,0.8c0,0.1,0.1,0.2,0.1,0.2c0,0.1,0,0.2,0,0.3c0,0,0,0.1,0,0.1c0,0,0,0.1,0,0.1c0,0,0,0.1,0,0.1
				c0,0,0,0.1,0,0.1c0,0,0,0.1,0,0.1c0,0,0,0.1,0,0.1c-0.2,0.5-0.4,0.9-0.9,1c-0.4,0.1-0.9,0.2-1.3,0.2c0,0-0.1,0-0.1,0
				c0,0-0.1,0-0.1,0h-2.4v-6.3h4.1v0.5h-3.5V30.4z M97.9,33.2c0.4-0.1,0.5-0.5,0.5-1c0-0.5-0.2-0.9-0.5-1c-0.3-0.2-0.8-0.3-1.2-0.3
				h-1.8v2.5h1.8C97.1,33.4,97.5,33.3,97.9,33.2z"/>
			<path id="XMLID_83_" class="st0" d="M102.8,27.5h0.8l2.5,6.3h-0.6l-0.8-2h-3l-0.8,2h-0.6L102.8,27.5z M103.2,28.2l-1.3,3.3h2.6
				L103.2,28.2z"/>
		</g>
		<g id="XMLID_40_">
			<path id="XMLID_79_" class="st0" d="M109.9,27.5h2.3c0.6,0,1.2,0.1,1.6,0.4c0.4,0.3,0.6,0.7,0.6,1.4c0,0.7-0.3,1.2-0.8,1.5
				c-0.5,0.2-1.1,0.4-1.8,0.4h-1.4v2.8h-0.6V27.5z M110.5,28v2.5h1.4c0.5,0,0.9-0.1,1.3-0.2c0.4-0.2,0.6-0.5,0.6-1.1
				c0-0.5-0.2-0.8-0.5-1c-0.3-0.2-0.7-0.3-1.1-0.3H110.5z"/>
			<path id="XMLID_77_" class="st0" d="M115.5,27.5h4.4V28h-3.8v2.3h3.5v0.5h-3.5v2.5h3.9v0.5h-4.5V27.5z"/>
			<path id="XMLID_75_" class="st0" d="M121.8,27.5h3.8V28h-3.2v5.8h-0.6V27.5z"/>
			<path id="XMLID_73_" class="st0" d="M126.7,27.5h0.6v5.4l3.7-5.4h0.7v6.3h-0.6v-5.5l-3.8,5.5h-0.7V27.5z"/>
			<path id="XMLID_71_" class="st0" d="M139.1,31.8c0,0.6-0.3,1.1-0.7,1.5c-0.4,0.4-1,0.6-1.6,0.7l-0.3,0c-0.9,0-1.6-0.3-2.1-0.8
				c-0.5-0.6-0.8-1.3-0.8-2.1c0,0,0-0.1,0-0.1c0,0,0-0.1,0-0.1c0,0,0-0.1,0-0.1c0,0,0-0.1,0-0.1c0-0.1,0-0.2,0-0.3
				c0-0.1,0-0.2,0-0.3c0-0.4,0.2-0.8,0.3-1.2c0.2-0.4,0.4-0.7,0.7-0.9c0.2-0.2,0.5-0.3,0.8-0.4c0.3-0.1,0.6-0.2,0.9-0.2
				c0,0,0.1,0,0.1,0c0,0,0.1,0,0.1,0c0,0,0,0,0,0c0,0,0,0,0,0c0.6,0,1.2,0.2,1.7,0.5c0.5,0.3,0.8,0.8,0.8,1.5h-0.6
				c0-0.5-0.3-0.8-0.6-1.1c-0.4-0.2-0.8-0.4-1.2-0.4c0,0,0,0,0,0c0,0,0,0,0,0c0,0-0.1,0-0.1,0s-0.1,0-0.1,0c-0.3,0-0.5,0.1-0.8,0.2
				c-0.2,0.1-0.5,0.2-0.6,0.4c-0.2,0.2-0.4,0.4-0.5,0.7c-0.1,0.3-0.2,0.6-0.2,0.9c0,0.1,0,0.2,0,0.3c0,0.1,0,0.2,0,0.3c0,0,0,0,0,0
				c0,0,0,0,0,0c0,0,0,0,0,0c0,0,0,0,0,0c0,0.7,0.2,1.3,0.6,1.9c0.4,0.6,1,0.8,1.7,0.8c0,0,0,0,0.1,0c0,0,0,0,0.1,0c0,0,0,0,0.1,0
				c0,0,0,0,0.1,0c0.5,0,1-0.2,1.3-0.5c0.3-0.3,0.5-0.7,0.5-1.2H139.1z"/>
			<path id="XMLID_69_" class="st0" d="M142.8,28h-2.1v-0.5h4.8V28h-2.1v5.8h-0.6V28z"/>
			<path id="XMLID_66_" class="st0" d="M146.8,27.5h2.3c0.6,0,1.2,0.1,1.6,0.4c0.4,0.3,0.6,0.7,0.6,1.4c0,0.7-0.3,1.2-0.8,1.5
				c-0.5,0.2-1.1,0.4-1.8,0.4h-1.4v2.8h-0.6V27.5z M147.4,28v2.5h1.4c0.5,0,0.9-0.1,1.3-0.2c0.4-0.2,0.6-0.5,0.6-1.1
				c0-0.5-0.2-0.8-0.5-1c-0.3-0.2-0.7-0.3-1.1-0.3H147.4z"/>
			<path id="XMLID_63_" class="st0" d="M154.3,27.5h0.8l2.5,6.3h-0.6l-0.8-2h-3l-0.8,2h-0.6L154.3,27.5z M154.6,28.1l-1.3,3.3h2.6
				L154.6,28.1z"/>
			<path id="XMLID_61_" class="st0" d="M159,33.9v-6.3h0.6v5.8h3.8v-5.8h0.6v5.8h0.5v2H164v-1.4H159z"/>
			<path id="XMLID_59_" class="st0" d="M166.3,27.5h0.6v5.4l3.7-5.4h0.7v6.3h-0.6v-5.5l-3.8,5.5h-0.7V27.5z"/>
			<path id="XMLID_57_" class="st0" d="M173.2,27.5h0.6v5.4l3.7-5.4h0.7v6.3h-0.6v-5.5l-3.8,5.5h-0.7V27.5z"/>
			<path id="XMLID_54_" class="st0" d="M184.5,30.3h1.4c0.1,0,0.2,0,0.3,0c0.1,0,0.2,0,0.3,0c0.4,0,0.8,0.1,1.2,0.2
				c0.4,0.1,0.7,0.4,0.9,0.8c0,0.1,0.1,0.2,0.1,0.2c0,0.1,0,0.2,0,0.3c0,0,0,0.1,0,0.1c0,0,0,0.1,0,0.1c0,0,0,0.1,0,0.1
				c0,0,0,0.1,0,0.1c0,0,0,0.1,0,0.1c0,0,0,0.1,0,0.1c-0.2,0.5-0.4,0.9-0.9,1c-0.4,0.1-0.9,0.2-1.3,0.2c0,0-0.1,0-0.1,0
				c0,0-0.1,0-0.1,0h-2.4v-6.3h4.1V28h-3.5V30.3z M187.5,33.2c0.4-0.1,0.5-0.5,0.5-1c0-0.5-0.2-0.9-0.5-1c-0.3-0.2-0.8-0.3-1.2-0.3
				h-1.8v2.5h1.8C186.8,33.3,187.2,33.3,187.5,33.2z"/>
			<path id="XMLID_52_" class="st0" d="M190.5,27.5h0.6v5.4l3.7-5.4h0.7v6.3h-0.6v-5.5l-3.8,5.5h-0.7V27.5z"/>
			<path id="XMLID_50_" class="st0" d="M199.3,30.3C199.3,30.3,199.4,30.3,199.3,30.3C199.4,30.3,199.4,30.3,199.3,30.3
				c0.1,0,0.1,0,0.1,0c0,0,0,0,0,0c0,0,0.1,0,0.1,0c0,0,0.1,0,0.1,0c0.4,0,0.7-0.1,1-0.3c0.3-0.2,0.5-0.4,0.5-0.8v-0.1
				c0-0.4-0.1-0.7-0.4-0.9c-0.3-0.2-0.6-0.3-1.1-0.3c-0.5,0-0.8,0.1-1.1,0.4c-0.3,0.3-0.5,0.6-0.5,1.1h-0.6c0-0.6,0.3-1.1,0.7-1.4
				c0.5-0.3,1-0.5,1.6-0.5c0,0,0,0,0,0c0,0,0,0,0,0c0.1,0,0.1,0,0.2,0c0.1,0,0.1,0,0.2,0c0.2,0,0.3,0.1,0.4,0.1
				c0.1,0,0.3,0.1,0.4,0.2c0.2,0.1,0.4,0.3,0.5,0.5c0.1,0.2,0.2,0.4,0.3,0.7c0,0,0,0.1,0,0.1c0,0,0,0.1,0,0.1c0,0,0,0.1,0,0.1
				c0,0,0,0.1,0,0.1c0,0.2-0.1,0.5-0.3,0.7s-0.4,0.4-0.7,0.5c0.4,0.1,0.7,0.3,1,0.6c0.2,0.3,0.4,0.7,0.4,1c0,0,0,0.1,0,0.1
				c0,0,0,0.1,0,0.1c0,0,0,0.1,0,0.1c0,0,0,0.1,0,0.1c-0.1,0.4-0.4,0.7-0.8,1c-0.4,0.2-0.9,0.4-1.6,0.4l0,0c-0.7,0-1.2-0.2-1.6-0.6
				c-0.4-0.4-0.7-0.9-0.7-1.5h0.6c0,0.5,0.2,0.9,0.5,1.2c0.3,0.3,0.7,0.5,1.3,0.5c0.1,0,0.2,0,0.3,0c0.1,0,0.2,0,0.3,0
				c0.3-0.1,0.6-0.2,0.9-0.4c0.3-0.2,0.4-0.5,0.4-0.9c0-0.5-0.2-0.8-0.5-1c-0.3-0.2-0.7-0.3-1.1-0.3c-0.1,0-0.2,0-0.3,0
				c-0.1,0-0.2,0-0.3,0V30.3z"/>
			<path id="XMLID_48_" class="st0" d="M204.1,27.5h0.6v2.7h3.8v-2.7h0.6v6.3h-0.6v-3.1h-3.8v3.1h-0.6V27.5z"/>
			<path id="XMLID_46_" class="st0" d="M211.1,27.5h4.4V28h-3.8v2.3h3.5v0.5h-3.5v2.5h3.9v0.5h-4.5V27.5z"/>
			<path id="XMLID_44_" class="st0" d="M222.9,31.8c0,0.6-0.3,1.1-0.7,1.5c-0.4,0.4-1,0.6-1.6,0.7l-0.3,0c-0.9,0-1.6-0.3-2.1-0.8
				c-0.5-0.6-0.8-1.3-0.8-2.1c0,0,0-0.1,0-0.1c0,0,0-0.1,0-0.1c0,0,0-0.1,0-0.1c0,0,0-0.1,0-0.1c0-0.1,0-0.2,0-0.3
				c0-0.1,0-0.2,0-0.3c0-0.4,0.2-0.8,0.3-1.2c0.2-0.4,0.4-0.7,0.7-0.9c0.2-0.2,0.5-0.3,0.8-0.4c0.3-0.1,0.6-0.2,0.9-0.2
				c0,0,0.1,0,0.1,0c0,0,0.1,0,0.1,0c0,0,0,0,0,0c0,0,0,0,0,0c0.6,0,1.2,0.2,1.7,0.5c0.5,0.3,0.8,0.8,0.8,1.5h-0.6
				c0-0.5-0.3-0.8-0.6-1.1c-0.4-0.2-0.8-0.4-1.2-0.4c0,0,0,0,0,0c0,0,0,0,0,0c0,0-0.1,0-0.1,0c0,0-0.1,0-0.1,0
				c-0.3,0-0.5,0.1-0.8,0.2c-0.2,0.1-0.5,0.2-0.6,0.4c-0.2,0.2-0.4,0.4-0.5,0.7c-0.1,0.3-0.2,0.6-0.2,0.9c0,0.1,0,0.2,0,0.3
				c0,0.1,0,0.2,0,0.3c0,0,0,0,0,0c0,0,0,0,0,0c0,0,0,0,0,0c0,0,0,0,0,0c0,0.7,0.2,1.3,0.6,1.9c0.4,0.6,1,0.8,1.7,0.8c0,0,0,0,0.1,0
				c0,0,0,0,0.1,0c0,0,0,0,0.1,0c0,0,0,0,0.1,0c0.5,0,1-0.2,1.3-0.5c0.3-0.3,0.5-0.7,0.5-1.2H222.9z"/>
			<path id="XMLID_41_" class="st0" d="M226.7,27.5h0.8l2.5,6.3h-0.6l-0.8-2h-3l-0.8,2h-0.6L226.7,27.5z M227.1,28.1l-1.3,3.3h2.6
				L227.1,28.1z"/>
		</g>
	</g>
	<g id="XMLID_4_">
		<path id="XMLID_37_" class="st1" d="M3.2,0.4h3.4l4.2,11.8l4.3-11.8h3.4l3.1,16.9h-3.4l-2-10.6l-3.9,10.6H9.2L5.4,6.6l-2,10.6H0
			L3.2,0.4z"/>
		<path id="XMLID_34_" class="st1" d="M32.9,0c2.6,0,4.8,0.9,6.7,2.6c1.9,1.7,2.8,3.8,2.8,6.3c0,2.5-0.9,4.5-2.8,6.2
			c-1.8,1.7-4.1,2.6-6.7,2.6c-2.7,0-5-0.9-6.8-2.6c-1.8-1.7-2.7-3.8-2.7-6.2c0-1.6,0.4-3.1,1.3-4.4c0.8-1.4,2-2.4,3.5-3.2
			C29.6,0.4,31.2,0,32.9,0z M32.9,3.1c-1.7,0-3.1,0.5-4.3,1.6s-1.7,2.5-1.7,4.1c0,1.9,0.7,3.3,2.2,4.4c1.1,0.8,2.4,1.3,3.9,1.3
			c1.6,0,3.1-0.6,4.2-1.7c1.2-1.1,1.7-2.5,1.7-4.1c0-1.6-0.6-3-1.8-4.1C36,3.7,34.5,3.1,32.9,3.1z"/>
		<path id="XMLID_32_" class="st1" d="M62.4,3.4L60,5.5c-1.7-1.6-3.5-2.4-5.6-2.4c-1.7,0-3.2,0.6-4.4,1.7c-1.2,1.1-1.8,2.5-1.8,4.1
			c0,1.1,0.3,2.1,0.8,3c0.5,0.9,1.3,1.6,2.2,2.1c1,0.5,2,0.7,3.2,0.7c1,0,1.9-0.2,2.8-0.5c0.8-0.3,1.8-1,2.8-1.9l2.4,2.3
			c-1.3,1.2-2.6,2.1-3.8,2.5c-1.2,0.5-2.6,0.7-4.1,0.7c-2.8,0-5.2-0.8-7-2.5c-1.8-1.7-2.7-3.8-2.7-6.4c0-1.7,0.4-3.2,1.2-4.5
			C46.8,3,48,2,49.5,1.2c1.5-0.8,3.2-1.2,5-1.2c1.5,0,3,0.3,4.4,0.9C60.2,1.4,61.4,2.3,62.4,3.4z"/>
		<path id="XMLID_29_" class="st0" d="M65.5,0.4h3.7c2,0,3.4,0.2,4.3,0.5c0.9,0.3,1.6,0.9,2.1,1.6c0.5,0.8,0.8,1.7,0.8,2.7
			c0,1.2-0.3,2.2-1,2.9c-0.7,0.8-1.6,1.3-2.7,1.6c-0.7,0.2-1.9,0.3-3.7,0.3v7.1h-3.5V0.4z M69,7h1.1c0.9,0,1.5-0.1,1.8-0.2
			c0.3-0.1,0.6-0.3,0.8-0.6C72.9,6,73,5.7,73,5.3c0-0.7-0.3-1.1-0.8-1.4c-0.4-0.2-1.1-0.3-2.2-0.3h-1V7z"/>
		<path id="XMLID_27_" class="st0" d="M79.8,0.4h10v3.1h-6.5v3h6.5v3.1h-6.5v4.4h6.5v3.2h-10V0.4z"/>
		<path id="XMLID_25_" class="st0" d="M93,0.4h9.1v3.1h-5.6v13.7H93V0.4z"/>
		<path id="XMLID_23_" class="st0" d="M118,0.4v16.9h-3.5V6.7l-6.8,10.6h-3V0.4h3.5v10.9l6.9-10.9H118z"/>
		<path id="XMLID_21_" class="st0" d="M139,3.4l-2.4,2.1c-1.7-1.6-3.5-2.4-5.6-2.4c-1.7,0-3.2,0.6-4.4,1.7c-1.2,1.1-1.8,2.5-1.8,4.1
			c0,1.1,0.3,2.1,0.8,3c0.5,0.9,1.3,1.6,2.2,2.1c1,0.5,2,0.7,3.2,0.7c1,0,1.9-0.2,2.8-0.5c0.8-0.3,1.8-1,2.8-1.9l2.4,2.3
			c-1.4,1.2-2.6,2.1-3.8,2.5c-1.2,0.5-2.6,0.7-4.1,0.7c-2.8,0-5.2-0.8-7-2.5c-1.8-1.7-2.7-3.8-2.7-6.4c0-1.7,0.4-3.2,1.2-4.5
			c0.8-1.3,2-2.4,3.5-3.2c1.5-0.8,3.2-1.2,5-1.2c1.5,0,3,0.3,4.4,0.9C136.8,1.4,138,2.3,139,3.4z"/>
		<path id="XMLID_19_" class="st0" d="M140.3,0.4h10.1v3.2H147v13.7h-3.5V3.6h-3.2V0.4z"/>
		<path id="XMLID_16_" class="st0" d="M152.7,0.4h3.7c2,0,3.4,0.2,4.3,0.5c0.9,0.3,1.6,0.9,2.1,1.6c0.5,0.8,0.8,1.7,0.8,2.7
			c0,1.2-0.3,2.2-1,2.9c-0.7,0.8-1.6,1.3-2.7,1.6c-0.7,0.2-1.9,0.3-3.7,0.3v7.1h-3.5V0.4z M156.2,7h1.1c0.9,0,1.5-0.1,1.8-0.2
			c0.3-0.1,0.6-0.3,0.8-0.6c0.2-0.3,0.3-0.6,0.3-1c0-0.7-0.3-1.1-0.8-1.4c-0.4-0.2-1.1-0.3-2.2-0.3h-1V7z"/>
		<path id="XMLID_13_" class="st0" d="M172.6,0.4h3.5l7,16.9h-3.6l-1.4-3.5h-7.5l-1.5,3.5h-3.6L172.6,0.4z M174.4,4.9l-2.5,5.8h4.9
			L174.4,4.9z"/>
		<path id="XMLID_11_" class="st0" d="M184,0.4h10.1v3.2h-3.3v13.7h-3.5V3.6H184V0.4z"/>
		<path id="XMLID_8_" class="st0" d="M205.1,0c2.6,0,4.8,0.9,6.7,2.6c1.9,1.7,2.8,3.8,2.8,6.3c0,2.5-0.9,4.5-2.8,6.2
			c-1.8,1.7-4.1,2.6-6.7,2.6c-2.7,0-5-0.9-6.8-2.6c-1.8-1.7-2.7-3.8-2.7-6.2c0-1.6,0.4-3.1,1.3-4.4c0.8-1.4,2-2.4,3.5-3.2
			C201.8,0.4,203.4,0,205.1,0z M205.1,3.1c-1.7,0-3.1,0.5-4.3,1.6s-1.7,2.5-1.7,4.1c0,1.9,0.7,3.3,2.2,4.4c1.1,0.8,2.4,1.3,3.9,1.3
			c1.7,0,3.1-0.6,4.2-1.7c1.2-1.1,1.7-2.5,1.7-4.1c0-1.6-0.6-3-1.8-4.1C208.2,3.7,206.8,3.1,205.1,3.1z"/>
		<path id="XMLID_5_" class="st0" d="M217.8,0.4h3.7c2,0,3.4,0.2,4.3,0.5c0.9,0.3,1.6,0.9,2.1,1.6c0.5,0.8,0.8,1.7,0.8,2.7
			c0,1.2-0.3,2.2-1,2.9C227,9,226.1,9.5,225,9.8c-0.7,0.2-1.9,0.3-3.7,0.3v7.1h-3.5V0.4z M221.3,7h1.1c0.9,0,1.5-0.1,1.8-0.2
			c0.3-0.1,0.6-0.3,0.8-0.6c0.2-0.3,0.3-0.6,0.3-1c0-0.7-0.3-1.1-0.8-1.4c-0.4-0.2-1.1-0.3-2.2-0.3h-1V7z"/>
	</g>
	<g id="XMLID_2_">
		<polyline id="XMLID_3_" points="0.3,22.9 229.4,22.9 229.4,22.1 0.3,22.1 		"/>
	</g>
</g>
</svg>
